<?xml version="1.0" encoding="utf-8"?>
<svg xmlns="http://www.w3.org/2000/svg" xmlns:xlink="http://www.w3.org/1999/xlink" width="600" height="400" viewBox="0 0 2400 1600">
<defs>
  <clipPath id="clip450">
    <rect x="0" y="0" width="2400" height="1600"/>
  </clipPath>
</defs>
<path clip-path="url(#clip450)" d="
M0 1600 L2400 1600 L2400 0 L0 0  Z
  " fill="#ffffff" fill-rule="evenodd" fill-opacity="1"/>
<defs>
  <clipPath id="clip451">
    <rect x="480" y="0" width="1681" height="1600"/>
  </clipPath>
</defs>
<path clip-path="url(#clip450)" d="
M219.866 1423.18 L2352.76 1423.18 L2352.76 123.472 L219.866 123.472  Z
  " fill="#ffffff" fill-rule="evenodd" fill-opacity="1"/>
<defs>
  <clipPath id="clip452">
    <rect x="219" y="123" width="2134" height="1301"/>
  </clipPath>
</defs>
<polyline clip-path="url(#clip452)" style="stroke:#000000; stroke-linecap:butt; stroke-linejoin:round; stroke-width:2; stroke-opacity:0.1; fill:none" points="
  219.866,1423.18 219.866,123.472 
  "/>
<polyline clip-path="url(#clip452)" style="stroke:#000000; stroke-linecap:butt; stroke-linejoin:round; stroke-width:2; stroke-opacity:0.1; fill:none" points="
  646.444,1423.18 646.444,123.472 
  "/>
<polyline clip-path="url(#clip452)" style="stroke:#000000; stroke-linecap:butt; stroke-linejoin:round; stroke-width:2; stroke-opacity:0.1; fill:none" points="
  1073.02,1423.18 1073.02,123.472 
  "/>
<polyline clip-path="url(#clip452)" style="stroke:#000000; stroke-linecap:butt; stroke-linejoin:round; stroke-width:2; stroke-opacity:0.1; fill:none" points="
  1499.6,1423.18 1499.6,123.472 
  "/>
<polyline clip-path="url(#clip452)" style="stroke:#000000; stroke-linecap:butt; stroke-linejoin:round; stroke-width:2; stroke-opacity:0.1; fill:none" points="
  1926.18,1423.18 1926.18,123.472 
  "/>
<polyline clip-path="url(#clip452)" style="stroke:#000000; stroke-linecap:butt; stroke-linejoin:round; stroke-width:2; stroke-opacity:0.1; fill:none" points="
  2352.76,1423.18 2352.76,123.472 
  "/>
<polyline clip-path="url(#clip450)" style="stroke:#000000; stroke-linecap:butt; stroke-linejoin:round; stroke-width:4; stroke-opacity:1; fill:none" points="
  219.866,1423.18 2352.76,1423.18 
  "/>
<polyline clip-path="url(#clip450)" style="stroke:#000000; stroke-linecap:butt; stroke-linejoin:round; stroke-width:4; stroke-opacity:1; fill:none" points="
  219.866,1423.18 219.866,1404.28 
  "/>
<polyline clip-path="url(#clip450)" style="stroke:#000000; stroke-linecap:butt; stroke-linejoin:round; stroke-width:4; stroke-opacity:1; fill:none" points="
  646.444,1423.18 646.444,1404.28 
  "/>
<polyline clip-path="url(#clip450)" style="stroke:#000000; stroke-linecap:butt; stroke-linejoin:round; stroke-width:4; stroke-opacity:1; fill:none" points="
  1073.02,1423.18 1073.02,1404.28 
  "/>
<polyline clip-path="url(#clip450)" style="stroke:#000000; stroke-linecap:butt; stroke-linejoin:round; stroke-width:4; stroke-opacity:1; fill:none" points="
  1499.6,1423.18 1499.6,1404.28 
  "/>
<polyline clip-path="url(#clip450)" style="stroke:#000000; stroke-linecap:butt; stroke-linejoin:round; stroke-width:4; stroke-opacity:1; fill:none" points="
  1926.18,1423.18 1926.18,1404.28 
  "/>
<polyline clip-path="url(#clip450)" style="stroke:#000000; stroke-linecap:butt; stroke-linejoin:round; stroke-width:4; stroke-opacity:1; fill:none" points="
  2352.76,1423.18 2352.76,1404.28 
  "/>
<path clip-path="url(#clip450)" d="M197.251 1454.1 Q193.64 1454.1 191.811 1457.66 Q190.005 1461.2 190.005 1468.33 Q190.005 1475.44 191.811 1479.01 Q193.64 1482.55 197.251 1482.55 Q200.885 1482.55 202.69 1479.01 Q204.519 1475.44 204.519 1468.33 Q204.519 1461.2 202.69 1457.66 Q200.885 1454.1 197.251 1454.1 M197.251 1450.39 Q203.061 1450.39 206.116 1455 Q209.195 1459.58 209.195 1468.33 Q209.195 1477.06 206.116 1481.67 Q203.061 1486.25 197.251 1486.25 Q191.44 1486.25 188.362 1481.67 Q185.306 1477.06 185.306 1468.33 Q185.306 1459.58 188.362 1455 Q191.44 1450.39 197.251 1450.39 Z" fill="#000000" fill-rule="evenodd" fill-opacity="1" /><path clip-path="url(#clip450)" d="M217.413 1479.7 L222.297 1479.7 L222.297 1485.58 L217.413 1485.58 L217.413 1479.7 Z" fill="#000000" fill-rule="evenodd" fill-opacity="1" /><path clip-path="url(#clip450)" d="M242.482 1454.1 Q238.871 1454.1 237.042 1457.66 Q235.237 1461.2 235.237 1468.33 Q235.237 1475.44 237.042 1479.01 Q238.871 1482.55 242.482 1482.55 Q246.116 1482.55 247.922 1479.01 Q249.75 1475.44 249.75 1468.33 Q249.75 1461.2 247.922 1457.66 Q246.116 1454.1 242.482 1454.1 M242.482 1450.39 Q248.292 1450.39 251.348 1455 Q254.426 1459.58 254.426 1468.33 Q254.426 1477.06 251.348 1481.67 Q248.292 1486.25 242.482 1486.25 Q236.672 1486.25 233.593 1481.67 Q230.538 1477.06 230.538 1468.33 Q230.538 1459.58 233.593 1455 Q236.672 1450.39 242.482 1450.39 Z" fill="#000000" fill-rule="evenodd" fill-opacity="1" /><path clip-path="url(#clip450)" d="M624.627 1454.1 Q621.016 1454.1 619.187 1457.66 Q617.382 1461.2 617.382 1468.33 Q617.382 1475.44 619.187 1479.01 Q621.016 1482.55 624.627 1482.55 Q628.261 1482.55 630.067 1479.01 Q631.896 1475.44 631.896 1468.33 Q631.896 1461.2 630.067 1457.66 Q628.261 1454.1 624.627 1454.1 M624.627 1450.39 Q630.437 1450.39 633.493 1455 Q636.572 1459.58 636.572 1468.33 Q636.572 1477.06 633.493 1481.67 Q630.437 1486.25 624.627 1486.25 Q618.817 1486.25 615.738 1481.67 Q612.683 1477.06 612.683 1468.33 Q612.683 1459.58 615.738 1455 Q618.817 1450.39 624.627 1450.39 Z" fill="#000000" fill-rule="evenodd" fill-opacity="1" /><path clip-path="url(#clip450)" d="M644.789 1479.7 L649.673 1479.7 L649.673 1485.58 L644.789 1485.58 L644.789 1479.7 Z" fill="#000000" fill-rule="evenodd" fill-opacity="1" /><path clip-path="url(#clip450)" d="M663.886 1481.64 L680.206 1481.64 L680.206 1485.58 L658.261 1485.58 L658.261 1481.64 Q660.923 1478.89 665.507 1474.26 Q670.113 1469.61 671.294 1468.27 Q673.539 1465.74 674.419 1464.01 Q675.321 1462.25 675.321 1460.56 Q675.321 1457.8 673.377 1456.07 Q671.456 1454.33 668.354 1454.33 Q666.155 1454.33 663.701 1455.09 Q661.271 1455.86 658.493 1457.41 L658.493 1452.69 Q661.317 1451.55 663.77 1450.97 Q666.224 1450.39 668.261 1450.39 Q673.632 1450.39 676.826 1453.08 Q680.02 1455.77 680.02 1460.26 Q680.02 1462.39 679.21 1464.31 Q678.423 1466.2 676.317 1468.8 Q675.738 1469.47 672.636 1472.69 Q669.534 1475.88 663.886 1481.64 Z" fill="#000000" fill-rule="evenodd" fill-opacity="1" /><path clip-path="url(#clip450)" d="M1050.16 1454.1 Q1046.55 1454.1 1044.72 1457.66 Q1042.92 1461.2 1042.92 1468.33 Q1042.92 1475.44 1044.72 1479.01 Q1046.55 1482.55 1050.16 1482.55 Q1053.8 1482.55 1055.6 1479.01 Q1057.43 1475.44 1057.43 1468.33 Q1057.43 1461.2 1055.6 1457.66 Q1053.8 1454.1 1050.16 1454.1 M1050.16 1450.39 Q1055.97 1450.39 1059.03 1455 Q1062.11 1459.58 1062.11 1468.33 Q1062.11 1477.06 1059.03 1481.67 Q1055.97 1486.25 1050.16 1486.25 Q1044.35 1486.25 1041.27 1481.67 Q1038.22 1477.06 1038.22 1468.33 Q1038.22 1459.58 1041.27 1455 Q1044.35 1450.39 1050.16 1450.39 Z" fill="#000000" fill-rule="evenodd" fill-opacity="1" /><path clip-path="url(#clip450)" d="M1070.33 1479.7 L1075.21 1479.7 L1075.21 1485.58 L1070.33 1485.58 L1070.33 1479.7 Z" fill="#000000" fill-rule="evenodd" fill-opacity="1" /><path clip-path="url(#clip450)" d="M1098.24 1455.09 L1086.44 1473.54 L1098.24 1473.54 L1098.24 1455.09 M1097.02 1451.02 L1102.89 1451.02 L1102.89 1473.54 L1107.83 1473.54 L1107.83 1477.43 L1102.89 1477.43 L1102.89 1485.58 L1098.24 1485.58 L1098.24 1477.43 L1082.64 1477.43 L1082.64 1472.92 L1097.02 1451.02 Z" fill="#000000" fill-rule="evenodd" fill-opacity="1" /><path clip-path="url(#clip450)" d="M1476.9 1454.1 Q1473.29 1454.1 1471.46 1457.66 Q1469.66 1461.2 1469.66 1468.33 Q1469.66 1475.44 1471.46 1479.01 Q1473.29 1482.55 1476.9 1482.55 Q1480.54 1482.55 1482.34 1479.01 Q1484.17 1475.44 1484.17 1468.33 Q1484.17 1461.2 1482.34 1457.66 Q1480.54 1454.1 1476.9 1454.1 M1476.9 1450.39 Q1482.71 1450.39 1485.77 1455 Q1488.85 1459.58 1488.85 1468.33 Q1488.85 1477.06 1485.77 1481.67 Q1482.71 1486.25 1476.9 1486.25 Q1471.09 1486.25 1468.01 1481.67 Q1464.96 1477.06 1464.96 1468.33 Q1464.96 1459.58 1468.01 1455 Q1471.09 1450.39 1476.9 1450.39 Z" fill="#000000" fill-rule="evenodd" fill-opacity="1" /><path clip-path="url(#clip450)" d="M1497.07 1479.7 L1501.95 1479.7 L1501.95 1485.58 L1497.07 1485.58 L1497.07 1479.7 Z" fill="#000000" fill-rule="evenodd" fill-opacity="1" /><path clip-path="url(#clip450)" d="M1522.71 1466.44 Q1519.57 1466.44 1517.71 1468.59 Q1515.88 1470.74 1515.88 1474.49 Q1515.88 1478.22 1517.71 1480.39 Q1519.57 1482.55 1522.71 1482.55 Q1525.86 1482.55 1527.69 1480.39 Q1529.54 1478.22 1529.54 1474.49 Q1529.54 1470.74 1527.69 1468.59 Q1525.86 1466.44 1522.71 1466.44 M1532 1451.78 L1532 1456.04 Q1530.24 1455.21 1528.43 1454.77 Q1526.65 1454.33 1524.89 1454.33 Q1520.26 1454.33 1517.81 1457.45 Q1515.38 1460.58 1515.03 1466.9 Q1516.39 1464.89 1518.45 1463.82 Q1520.51 1462.73 1522.99 1462.73 Q1528.2 1462.73 1531.21 1465.9 Q1534.24 1469.05 1534.24 1474.49 Q1534.24 1479.82 1531.09 1483.03 Q1527.94 1486.25 1522.71 1486.25 Q1516.72 1486.25 1513.55 1481.67 Q1510.38 1477.06 1510.38 1468.33 Q1510.38 1460.14 1514.26 1455.28 Q1518.15 1450.39 1524.7 1450.39 Q1526.46 1450.39 1528.25 1450.74 Q1530.05 1451.09 1532 1451.78 Z" fill="#000000" fill-rule="evenodd" fill-opacity="1" /><path clip-path="url(#clip450)" d="M1903.61 1454.1 Q1900 1454.1 1898.17 1457.66 Q1896.36 1461.2 1896.36 1468.33 Q1896.36 1475.44 1898.17 1479.01 Q1900 1482.55 1903.61 1482.55 Q1907.24 1482.55 1909.05 1479.01 Q1910.88 1475.44 1910.88 1468.33 Q1910.88 1461.2 1909.05 1457.66 Q1907.24 1454.1 1903.61 1454.1 M1903.61 1450.39 Q1909.42 1450.39 1912.47 1455 Q1915.55 1459.58 1915.55 1468.33 Q1915.55 1477.06 1912.47 1481.67 Q1909.42 1486.25 1903.61 1486.25 Q1897.8 1486.25 1894.72 1481.67 Q1891.66 1477.06 1891.66 1468.33 Q1891.66 1459.58 1894.72 1455 Q1897.8 1450.39 1903.61 1450.39 Z" fill="#000000" fill-rule="evenodd" fill-opacity="1" /><path clip-path="url(#clip450)" d="M1923.77 1479.7 L1928.65 1479.7 L1928.65 1485.58 L1923.77 1485.58 L1923.77 1479.7 Z" fill="#000000" fill-rule="evenodd" fill-opacity="1" /><path clip-path="url(#clip450)" d="M1948.84 1469.17 Q1945.51 1469.17 1943.59 1470.95 Q1941.69 1472.73 1941.69 1475.86 Q1941.69 1478.98 1943.59 1480.77 Q1945.51 1482.55 1948.84 1482.55 Q1952.17 1482.55 1954.09 1480.77 Q1956.02 1478.96 1956.02 1475.86 Q1956.02 1472.73 1954.09 1470.95 Q1952.2 1469.17 1948.84 1469.17 M1944.16 1467.18 Q1941.15 1466.44 1939.46 1464.38 Q1937.8 1462.32 1937.8 1459.35 Q1937.8 1455.21 1940.74 1452.8 Q1943.7 1450.39 1948.84 1450.39 Q1954 1450.39 1956.94 1452.8 Q1959.88 1455.21 1959.88 1459.35 Q1959.88 1462.32 1958.19 1464.38 Q1956.53 1466.44 1953.54 1467.18 Q1956.92 1467.96 1958.79 1470.26 Q1960.69 1472.55 1960.69 1475.86 Q1960.69 1480.88 1957.61 1483.57 Q1954.56 1486.25 1948.84 1486.25 Q1943.12 1486.25 1940.04 1483.57 Q1936.99 1480.88 1936.99 1475.86 Q1936.99 1472.55 1938.89 1470.26 Q1940.78 1467.96 1944.16 1467.18 M1942.45 1459.79 Q1942.45 1462.48 1944.12 1463.98 Q1945.81 1465.49 1948.84 1465.49 Q1951.85 1465.49 1953.54 1463.98 Q1955.25 1462.48 1955.25 1459.79 Q1955.25 1457.11 1953.54 1455.6 Q1951.85 1454.1 1948.84 1454.1 Q1945.81 1454.1 1944.12 1455.6 Q1942.45 1457.11 1942.45 1459.79 Z" fill="#000000" fill-rule="evenodd" fill-opacity="1" /><path clip-path="url(#clip450)" d="M2319.91 1481.64 L2327.55 1481.64 L2327.55 1455.28 L2319.24 1456.95 L2319.24 1452.69 L2327.5 1451.02 L2332.18 1451.02 L2332.18 1481.64 L2339.82 1481.64 L2339.82 1485.58 L2319.91 1485.58 L2319.91 1481.64 Z" fill="#000000" fill-rule="evenodd" fill-opacity="1" /><path clip-path="url(#clip450)" d="M2349.26 1479.7 L2354.14 1479.7 L2354.14 1485.58 L2349.26 1485.58 L2349.26 1479.7 Z" fill="#000000" fill-rule="evenodd" fill-opacity="1" /><path clip-path="url(#clip450)" d="M2374.33 1454.1 Q2370.72 1454.1 2368.89 1457.66 Q2367.08 1461.2 2367.08 1468.33 Q2367.08 1475.44 2368.89 1479.01 Q2370.72 1482.55 2374.33 1482.55 Q2377.96 1482.55 2379.77 1479.01 Q2381.6 1475.44 2381.6 1468.33 Q2381.6 1461.2 2379.77 1457.66 Q2377.96 1454.1 2374.33 1454.1 M2374.33 1450.39 Q2380.14 1450.39 2383.2 1455 Q2386.27 1459.58 2386.27 1468.33 Q2386.27 1477.06 2383.2 1481.67 Q2380.14 1486.25 2374.33 1486.25 Q2368.52 1486.25 2365.44 1481.67 Q2362.39 1477.06 2362.39 1468.33 Q2362.39 1459.58 2365.44 1455 Q2368.52 1450.39 2374.33 1450.39 Z" fill="#000000" fill-rule="evenodd" fill-opacity="1" /><path clip-path="url(#clip450)" d="M1113 1520.52 L1121.66 1520.52 L1142.73 1560.28 L1142.73 1520.52 L1148.97 1520.52 L1148.97 1568.04 L1140.31 1568.04 L1119.24 1528.29 L1119.24 1568.04 L1113 1568.04 L1113 1520.52 Z" fill="#000000" fill-rule="evenodd" fill-opacity="1" /><path clip-path="url(#clip450)" d="M1192 1548.76 L1192 1551.62 L1165.08 1551.62 Q1165.46 1557.67 1168.7 1560.85 Q1171.98 1564 1177.81 1564 Q1181.18 1564 1184.33 1563.17 Q1187.52 1562.35 1190.63 1560.69 L1190.63 1566.23 Q1187.48 1567.57 1184.17 1568.27 Q1180.86 1568.97 1177.46 1568.97 Q1168.93 1568.97 1163.93 1564 Q1158.97 1559.04 1158.97 1550.57 Q1158.97 1541.82 1163.68 1536.69 Q1168.42 1531.54 1176.44 1531.54 Q1183.63 1531.54 1187.8 1536.18 Q1192 1540.8 1192 1548.76 M1186.15 1547.04 Q1186.08 1542.23 1183.44 1539.37 Q1180.83 1536.5 1176.5 1536.5 Q1171.6 1536.5 1168.64 1539.27 Q1165.71 1542.04 1165.27 1547.07 L1186.15 1547.04 Z" fill="#000000" fill-rule="evenodd" fill-opacity="1" /><path clip-path="url(#clip450)" d="M1198.21 1532.4 L1204.07 1532.4 L1211.39 1560.21 L1218.68 1532.4 L1225.58 1532.4 L1232.9 1560.21 L1240.19 1532.4 L1246.05 1532.4 L1236.72 1568.04 L1229.82 1568.04 L1222.14 1538.83 L1214.44 1568.04 L1207.54 1568.04 L1198.21 1532.4 Z" fill="#000000" fill-rule="evenodd" fill-opacity="1" /><path clip-path="url(#clip450)" d="M1305.28 1532.4 L1292.39 1549.74 L1305.95 1568.04 L1299.04 1568.04 L1288.67 1554.04 L1278.29 1568.04 L1271.38 1568.04 L1285.23 1549.39 L1272.56 1532.4 L1279.47 1532.4 L1288.92 1545.1 L1298.37 1532.4 L1305.28 1532.4 Z" fill="#000000" fill-rule="evenodd" fill-opacity="1" /><path clip-path="url(#clip450)" d="M1314.22 1518.52 L1320.08 1518.52 L1320.08 1568.04 L1314.22 1568.04 L1314.22 1518.52 Z" fill="#000000" fill-rule="evenodd" fill-opacity="1" /><path clip-path="url(#clip450)" d="M1348.54 1550.12 Q1341.44 1550.12 1338.7 1551.75 Q1335.96 1553.37 1335.96 1557.29 Q1335.96 1560.4 1338 1562.25 Q1340.07 1564.07 1343.6 1564.07 Q1348.47 1564.07 1351.4 1560.63 Q1354.36 1557.16 1354.36 1551.43 L1354.36 1550.12 L1348.54 1550.12 M1360.22 1547.71 L1360.22 1568.04 L1354.36 1568.04 L1354.36 1562.63 Q1352.36 1565.88 1349.36 1567.44 Q1346.37 1568.97 1342.04 1568.97 Q1336.57 1568.97 1333.32 1565.91 Q1330.11 1562.82 1330.11 1557.67 Q1330.11 1551.65 1334.12 1548.6 Q1338.16 1545.54 1346.15 1545.54 L1354.36 1545.54 L1354.36 1544.97 Q1354.36 1540.93 1351.69 1538.73 Q1349.05 1536.5 1344.24 1536.5 Q1341.18 1536.5 1338.29 1537.23 Q1335.39 1537.97 1332.72 1539.43 L1332.72 1534.02 Q1335.93 1532.78 1338.96 1532.17 Q1341.98 1531.54 1344.84 1531.54 Q1352.58 1531.54 1356.4 1535.55 Q1360.22 1539.56 1360.22 1547.71 Z" fill="#000000" fill-rule="evenodd" fill-opacity="1" /><path clip-path="url(#clip450)" d="M1397.87 1550.25 Q1397.87 1543.79 1395.2 1540.13 Q1392.55 1536.44 1387.91 1536.44 Q1383.26 1536.44 1380.59 1540.13 Q1377.95 1543.79 1377.95 1550.25 Q1377.95 1556.71 1380.59 1560.4 Q1383.26 1564.07 1387.91 1564.07 Q1392.55 1564.07 1395.2 1560.4 Q1397.87 1556.71 1397.87 1550.25 M1377.95 1537.81 Q1379.79 1534.62 1382.59 1533.1 Q1385.43 1531.54 1389.34 1531.54 Q1395.83 1531.54 1399.88 1536.69 Q1403.95 1541.85 1403.95 1550.25 Q1403.95 1558.65 1399.88 1563.81 Q1395.83 1568.97 1389.34 1568.97 Q1385.43 1568.97 1382.59 1567.44 Q1379.79 1565.88 1377.95 1562.7 L1377.95 1568.04 L1372.06 1568.04 L1372.06 1518.52 L1377.95 1518.52 L1377.95 1537.81 Z" fill="#000000" fill-rule="evenodd" fill-opacity="1" /><path clip-path="url(#clip450)" d="M1444.15 1548.76 L1444.15 1551.62 L1417.22 1551.62 Q1417.6 1557.67 1420.85 1560.85 Q1424.13 1564 1429.95 1564 Q1433.33 1564 1436.48 1563.17 Q1439.66 1562.35 1442.78 1560.69 L1442.78 1566.23 Q1439.63 1567.57 1436.32 1568.27 Q1433.01 1568.97 1429.6 1568.97 Q1421.07 1568.97 1416.08 1564 Q1411.11 1559.04 1411.11 1550.57 Q1411.11 1541.82 1415.82 1536.69 Q1420.56 1531.54 1428.58 1531.54 Q1435.78 1531.54 1439.95 1536.18 Q1444.15 1540.8 1444.15 1548.76 M1438.29 1547.04 Q1438.23 1542.23 1435.59 1539.37 Q1432.98 1536.5 1428.65 1536.5 Q1423.75 1536.5 1420.79 1539.27 Q1417.86 1542.04 1417.41 1547.07 L1438.29 1547.04 Z" fill="#000000" fill-rule="evenodd" fill-opacity="1" /><path clip-path="url(#clip450)" d="M1453.76 1518.52 L1459.62 1518.52 L1459.62 1568.04 L1453.76 1568.04 L1453.76 1518.52 Z" fill="#000000" fill-rule="evenodd" fill-opacity="1" /><polyline clip-path="url(#clip452)" style="stroke:#000000; stroke-linecap:butt; stroke-linejoin:round; stroke-width:2; stroke-opacity:0.1; fill:none" points="
  219.866,1423.18 2352.76,1423.18 
  "/>
<polyline clip-path="url(#clip452)" style="stroke:#000000; stroke-linecap:butt; stroke-linejoin:round; stroke-width:2; stroke-opacity:0.1; fill:none" points="
  219.866,1163.24 2352.76,1163.24 
  "/>
<polyline clip-path="url(#clip452)" style="stroke:#000000; stroke-linecap:butt; stroke-linejoin:round; stroke-width:2; stroke-opacity:0.1; fill:none" points="
  219.866,903.297 2352.76,903.297 
  "/>
<polyline clip-path="url(#clip452)" style="stroke:#000000; stroke-linecap:butt; stroke-linejoin:round; stroke-width:2; stroke-opacity:0.1; fill:none" points="
  219.866,643.355 2352.76,643.355 
  "/>
<polyline clip-path="url(#clip452)" style="stroke:#000000; stroke-linecap:butt; stroke-linejoin:round; stroke-width:2; stroke-opacity:0.1; fill:none" points="
  219.866,383.414 2352.76,383.414 
  "/>
<polyline clip-path="url(#clip452)" style="stroke:#000000; stroke-linecap:butt; stroke-linejoin:round; stroke-width:2; stroke-opacity:0.1; fill:none" points="
  219.866,123.472 2352.76,123.472 
  "/>
<polyline clip-path="url(#clip450)" style="stroke:#000000; stroke-linecap:butt; stroke-linejoin:round; stroke-width:4; stroke-opacity:1; fill:none" points="
  219.866,1423.18 219.866,123.472 
  "/>
<polyline clip-path="url(#clip450)" style="stroke:#000000; stroke-linecap:butt; stroke-linejoin:round; stroke-width:4; stroke-opacity:1; fill:none" points="
  219.866,1423.18 238.764,1423.18 
  "/>
<polyline clip-path="url(#clip450)" style="stroke:#000000; stroke-linecap:butt; stroke-linejoin:round; stroke-width:4; stroke-opacity:1; fill:none" points="
  219.866,1163.24 238.764,1163.24 
  "/>
<polyline clip-path="url(#clip450)" style="stroke:#000000; stroke-linecap:butt; stroke-linejoin:round; stroke-width:4; stroke-opacity:1; fill:none" points="
  219.866,903.297 238.764,903.297 
  "/>
<polyline clip-path="url(#clip450)" style="stroke:#000000; stroke-linecap:butt; stroke-linejoin:round; stroke-width:4; stroke-opacity:1; fill:none" points="
  219.866,643.355 238.764,643.355 
  "/>
<polyline clip-path="url(#clip450)" style="stroke:#000000; stroke-linecap:butt; stroke-linejoin:round; stroke-width:4; stroke-opacity:1; fill:none" points="
  219.866,383.414 238.764,383.414 
  "/>
<polyline clip-path="url(#clip450)" style="stroke:#000000; stroke-linecap:butt; stroke-linejoin:round; stroke-width:4; stroke-opacity:1; fill:none" points="
  219.866,123.472 238.764,123.472 
  "/>
<path clip-path="url(#clip450)" d="M126.691 1408.98 Q123.08 1408.98 121.251 1412.54 Q119.445 1416.08 119.445 1423.21 Q119.445 1430.32 121.251 1433.89 Q123.08 1437.43 126.691 1437.43 Q130.325 1437.43 132.13 1433.89 Q133.959 1430.32 133.959 1423.21 Q133.959 1416.08 132.13 1412.54 Q130.325 1408.98 126.691 1408.98 M126.691 1405.27 Q132.501 1405.27 135.556 1409.88 Q138.635 1414.46 138.635 1423.21 Q138.635 1431.94 135.556 1436.55 Q132.501 1441.13 126.691 1441.13 Q120.88 1441.13 117.802 1436.55 Q114.746 1431.94 114.746 1423.21 Q114.746 1414.46 117.802 1409.88 Q120.88 1405.27 126.691 1405.27 Z" fill="#000000" fill-rule="evenodd" fill-opacity="1" /><path clip-path="url(#clip450)" d="M146.853 1434.58 L151.737 1434.58 L151.737 1440.46 L146.853 1440.46 L146.853 1434.58 Z" fill="#000000" fill-rule="evenodd" fill-opacity="1" /><path clip-path="url(#clip450)" d="M171.922 1408.98 Q168.311 1408.98 166.482 1412.54 Q164.677 1416.08 164.677 1423.21 Q164.677 1430.32 166.482 1433.89 Q168.311 1437.43 171.922 1437.43 Q175.556 1437.43 177.362 1433.89 Q179.19 1430.32 179.19 1423.21 Q179.19 1416.08 177.362 1412.54 Q175.556 1408.98 171.922 1408.98 M171.922 1405.27 Q177.732 1405.27 180.788 1409.88 Q183.866 1414.46 183.866 1423.21 Q183.866 1431.94 180.788 1436.55 Q177.732 1441.13 171.922 1441.13 Q166.112 1441.13 163.033 1436.55 Q159.978 1431.94 159.978 1423.21 Q159.978 1414.46 163.033 1409.88 Q166.112 1405.27 171.922 1405.27 Z" fill="#000000" fill-rule="evenodd" fill-opacity="1" /><path clip-path="url(#clip450)" d="M128.288 1149.04 Q124.677 1149.04 122.848 1152.6 Q121.043 1156.14 121.043 1163.27 Q121.043 1170.38 122.848 1173.94 Q124.677 1177.49 128.288 1177.49 Q131.922 1177.49 133.728 1173.94 Q135.556 1170.38 135.556 1163.27 Q135.556 1156.14 133.728 1152.6 Q131.922 1149.04 128.288 1149.04 M128.288 1145.33 Q134.098 1145.33 137.154 1149.94 Q140.232 1154.52 140.232 1163.27 Q140.232 1172 137.154 1176.61 Q134.098 1181.19 128.288 1181.19 Q122.478 1181.19 119.399 1176.61 Q116.343 1172 116.343 1163.27 Q116.343 1154.52 119.399 1149.94 Q122.478 1145.33 128.288 1145.33 Z" fill="#000000" fill-rule="evenodd" fill-opacity="1" /><path clip-path="url(#clip450)" d="M148.45 1174.64 L153.334 1174.64 L153.334 1180.52 L148.45 1180.52 L148.45 1174.64 Z" fill="#000000" fill-rule="evenodd" fill-opacity="1" /><path clip-path="url(#clip450)" d="M167.547 1176.58 L183.866 1176.58 L183.866 1180.52 L161.922 1180.52 L161.922 1176.58 Q164.584 1173.83 169.167 1169.2 Q173.774 1164.55 174.954 1163.2 Q177.2 1160.68 178.079 1158.94 Q178.982 1157.19 178.982 1155.5 Q178.982 1152.74 177.038 1151 Q175.116 1149.27 172.014 1149.27 Q169.815 1149.27 167.362 1150.03 Q164.931 1150.8 162.153 1152.35 L162.153 1147.62 Q164.977 1146.49 167.431 1145.91 Q169.885 1145.33 171.922 1145.33 Q177.292 1145.33 180.487 1148.02 Q183.681 1150.7 183.681 1155.19 Q183.681 1157.32 182.871 1159.25 Q182.084 1161.14 179.977 1163.74 Q179.399 1164.41 176.297 1167.62 Q173.195 1170.82 167.547 1176.58 Z" fill="#000000" fill-rule="evenodd" fill-opacity="1" /><path clip-path="url(#clip450)" d="M126.205 889.095 Q122.593 889.095 120.765 892.66 Q118.959 896.202 118.959 903.331 Q118.959 910.438 120.765 914.003 Q122.593 917.544 126.205 917.544 Q129.839 917.544 131.644 914.003 Q133.473 910.438 133.473 903.331 Q133.473 896.202 131.644 892.66 Q129.839 889.095 126.205 889.095 M126.205 885.392 Q132.015 885.392 135.07 889.998 Q138.149 894.582 138.149 903.331 Q138.149 912.058 135.07 916.665 Q132.015 921.248 126.205 921.248 Q120.394 921.248 117.316 916.665 Q114.26 912.058 114.26 903.331 Q114.26 894.582 117.316 889.998 Q120.394 885.392 126.205 885.392 Z" fill="#000000" fill-rule="evenodd" fill-opacity="1" /><path clip-path="url(#clip450)" d="M146.366 914.697 L151.251 914.697 L151.251 920.577 L146.366 920.577 L146.366 914.697 Z" fill="#000000" fill-rule="evenodd" fill-opacity="1" /><path clip-path="url(#clip450)" d="M174.283 890.091 L162.477 908.54 L174.283 908.54 L174.283 890.091 M173.056 886.017 L178.936 886.017 L178.936 908.54 L183.866 908.54 L183.866 912.429 L178.936 912.429 L178.936 920.577 L174.283 920.577 L174.283 912.429 L158.681 912.429 L158.681 907.915 L173.056 886.017 Z" fill="#000000" fill-rule="evenodd" fill-opacity="1" /><path clip-path="url(#clip450)" d="M126.529 629.154 Q122.918 629.154 121.089 632.719 Q119.283 636.26 119.283 643.39 Q119.283 650.496 121.089 654.061 Q122.918 657.603 126.529 657.603 Q130.163 657.603 131.968 654.061 Q133.797 650.496 133.797 643.39 Q133.797 636.26 131.968 632.719 Q130.163 629.154 126.529 629.154 M126.529 625.45 Q132.339 625.45 135.394 630.057 Q138.473 634.64 138.473 643.39 Q138.473 652.117 135.394 656.723 Q132.339 661.307 126.529 661.307 Q120.718 661.307 117.64 656.723 Q114.584 652.117 114.584 643.39 Q114.584 634.64 117.64 630.057 Q120.718 625.45 126.529 625.45 Z" fill="#000000" fill-rule="evenodd" fill-opacity="1" /><path clip-path="url(#clip450)" d="M146.691 654.756 L151.575 654.756 L151.575 660.635 L146.691 660.635 L146.691 654.756 Z" fill="#000000" fill-rule="evenodd" fill-opacity="1" /><path clip-path="url(#clip450)" d="M172.339 641.492 Q169.19 641.492 167.339 643.645 Q165.51 645.797 165.51 649.547 Q165.51 653.274 167.339 655.45 Q169.19 657.603 172.339 657.603 Q175.487 657.603 177.315 655.45 Q179.167 653.274 179.167 649.547 Q179.167 645.797 177.315 643.645 Q175.487 641.492 172.339 641.492 M181.621 626.839 L181.621 631.098 Q179.862 630.265 178.056 629.825 Q176.274 629.385 174.514 629.385 Q169.885 629.385 167.431 632.51 Q165.001 635.635 164.653 641.955 Q166.019 639.941 168.079 638.876 Q170.139 637.788 172.616 637.788 Q177.825 637.788 180.834 640.959 Q183.866 644.108 183.866 649.547 Q183.866 654.871 180.718 658.089 Q177.57 661.307 172.339 661.307 Q166.343 661.307 163.172 656.723 Q160.001 652.117 160.001 643.39 Q160.001 635.196 163.89 630.334 Q167.778 625.45 174.329 625.45 Q176.089 625.45 177.871 625.797 Q179.676 626.145 181.621 626.839 Z" fill="#000000" fill-rule="evenodd" fill-opacity="1" /><path clip-path="url(#clip450)" d="M126.783 369.212 Q123.172 369.212 121.343 372.777 Q119.538 376.319 119.538 383.448 Q119.538 390.555 121.343 394.12 Q123.172 397.661 126.783 397.661 Q130.417 397.661 132.223 394.12 Q134.052 390.555 134.052 383.448 Q134.052 376.319 132.223 372.777 Q130.417 369.212 126.783 369.212 M126.783 365.509 Q132.593 365.509 135.649 370.115 Q138.728 374.698 138.728 383.448 Q138.728 392.175 135.649 396.782 Q132.593 401.365 126.783 401.365 Q120.973 401.365 117.894 396.782 Q114.839 392.175 114.839 383.448 Q114.839 374.698 117.894 370.115 Q120.973 365.509 126.783 365.509 Z" fill="#000000" fill-rule="evenodd" fill-opacity="1" /><path clip-path="url(#clip450)" d="M146.945 394.814 L151.829 394.814 L151.829 400.694 L146.945 400.694 L146.945 394.814 Z" fill="#000000" fill-rule="evenodd" fill-opacity="1" /><path clip-path="url(#clip450)" d="M172.014 384.282 Q168.681 384.282 166.76 386.064 Q164.862 387.847 164.862 390.971 Q164.862 394.096 166.76 395.879 Q168.681 397.661 172.014 397.661 Q175.348 397.661 177.269 395.879 Q179.19 394.073 179.19 390.971 Q179.19 387.847 177.269 386.064 Q175.371 384.282 172.014 384.282 M167.339 382.291 Q164.329 381.55 162.64 379.49 Q160.973 377.43 160.973 374.467 Q160.973 370.323 163.913 367.916 Q166.876 365.509 172.014 365.509 Q177.176 365.509 180.116 367.916 Q183.056 370.323 183.056 374.467 Q183.056 377.43 181.366 379.49 Q179.7 381.55 176.714 382.291 Q180.093 383.078 181.968 385.37 Q183.866 387.661 183.866 390.971 Q183.866 395.995 180.788 398.68 Q177.732 401.365 172.014 401.365 Q166.297 401.365 163.218 398.68 Q160.163 395.995 160.163 390.971 Q160.163 387.661 162.061 385.37 Q163.959 383.078 167.339 382.291 M165.626 374.907 Q165.626 377.592 167.292 379.097 Q168.982 380.601 172.014 380.601 Q175.024 380.601 176.714 379.097 Q178.426 377.592 178.426 374.907 Q178.426 372.222 176.714 370.717 Q175.024 369.212 172.014 369.212 Q168.982 369.212 167.292 370.717 Q165.626 372.222 165.626 374.907 Z" fill="#000000" fill-rule="evenodd" fill-opacity="1" /><path clip-path="url(#clip450)" d="M117.501 136.817 L125.14 136.817 L125.14 110.451 L116.83 112.118 L116.83 107.859 L125.093 106.192 L129.769 106.192 L129.769 136.817 L137.408 136.817 L137.408 140.752 L117.501 140.752 L117.501 136.817 Z" fill="#000000" fill-rule="evenodd" fill-opacity="1" /><path clip-path="url(#clip450)" d="M146.853 134.873 L151.737 134.873 L151.737 140.752 L146.853 140.752 L146.853 134.873 Z" fill="#000000" fill-rule="evenodd" fill-opacity="1" /><path clip-path="url(#clip450)" d="M171.922 109.271 Q168.311 109.271 166.482 112.836 Q164.677 116.377 164.677 123.507 Q164.677 130.613 166.482 134.178 Q168.311 137.72 171.922 137.72 Q175.556 137.72 177.362 134.178 Q179.19 130.613 179.19 123.507 Q179.19 116.377 177.362 112.836 Q175.556 109.271 171.922 109.271 M171.922 105.567 Q177.732 105.567 180.788 110.174 Q183.866 114.757 183.866 123.507 Q183.866 132.234 180.788 136.84 Q177.732 141.423 171.922 141.423 Q166.112 141.423 163.033 136.84 Q159.978 132.234 159.978 123.507 Q159.978 114.757 163.033 110.174 Q166.112 105.567 171.922 105.567 Z" fill="#000000" fill-rule="evenodd" fill-opacity="1" /><path clip-path="url(#clip450)" d="M16.4842 946.632 L16.4842 937.975 L56.238 916.904 L16.4842 916.904 L16.4842 910.666 L64.0042 910.666 L64.0042 919.323 L24.2503 940.394 L64.0042 940.394 L64.0042 946.632 L16.4842 946.632 Z" fill="#000000" fill-rule="evenodd" fill-opacity="1" /><path clip-path="url(#clip450)" d="M44.7161 867.634 L47.5806 867.634 L47.5806 894.561 Q53.6281 894.179 56.8109 890.932 Q59.9619 887.654 59.9619 881.829 Q59.9619 878.456 59.1344 875.305 Q58.3069 872.122 56.6518 869.003 L62.1899 869.003 Q63.5267 872.154 64.227 875.464 Q64.9272 878.774 64.9272 882.18 Q64.9272 890.71 59.9619 895.707 Q54.9967 900.672 46.5303 900.672 Q37.7774 900.672 32.6531 895.961 Q27.4968 891.219 27.4968 883.198 Q27.4968 876.005 32.1438 871.835 Q36.7589 867.634 44.7161 867.634 M42.9973 873.49 Q38.1912 873.554 35.3266 876.196 Q32.4621 878.806 32.4621 883.134 Q32.4621 888.036 35.2312 890.996 Q38.0002 893.924 43.0292 894.37 L42.9973 873.49 Z" fill="#000000" fill-rule="evenodd" fill-opacity="1" /><path clip-path="url(#clip450)" d="M28.3562 861.427 L28.3562 855.571 L56.1743 848.25 L28.3562 840.962 L28.3562 834.055 L56.1743 826.734 L28.3562 819.446 L28.3562 813.589 L64.0042 822.915 L64.0042 829.822 L34.7856 837.492 L64.0042 845.195 L64.0042 852.102 L28.3562 861.427 Z" fill="#000000" fill-rule="evenodd" fill-opacity="1" /><path clip-path="url(#clip450)" d="M67.3143 769.156 Q73.68 771.639 75.6216 773.994 Q77.5631 776.35 77.5631 780.296 L77.5631 784.975 L72.6615 784.975 L72.6615 781.538 Q72.6615 779.119 71.5157 777.782 Q70.3699 776.445 66.1048 774.822 L63.4312 773.772 L28.3562 788.19 L28.3562 781.983 L56.238 770.843 L28.3562 759.703 L28.3562 753.497 L67.3143 769.156 Z" fill="#000000" fill-rule="evenodd" fill-opacity="1" /><path clip-path="url(#clip450)" d="M14.479 745.412 L14.479 739.556 L64.0042 739.556 L64.0042 745.412 L14.479 745.412 Z" fill="#000000" fill-rule="evenodd" fill-opacity="1" /><path clip-path="url(#clip450)" d="M46.0847 711.101 Q46.0847 718.199 47.7079 720.936 Q49.3312 723.673 53.2461 723.673 Q56.3653 723.673 58.2114 721.636 Q60.0256 719.568 60.0256 716.035 Q60.0256 711.165 56.5881 708.237 Q53.1188 705.277 47.3897 705.277 L46.0847 705.277 L46.0847 711.101 M43.6657 699.42 L64.0042 699.42 L64.0042 705.277 L58.5933 705.277 Q61.8398 707.282 63.3994 710.274 Q64.9272 713.266 64.9272 717.594 Q64.9272 723.069 61.8716 726.315 Q58.7843 729.53 53.6281 729.53 Q47.6125 729.53 44.5569 725.52 Q41.5014 721.477 41.5014 713.488 L41.5014 705.277 L40.9285 705.277 Q36.8862 705.277 34.6901 707.95 Q32.4621 710.592 32.4621 715.398 Q32.4621 718.454 33.1941 721.35 Q33.9262 724.246 35.3903 726.92 L29.9795 726.92 Q28.7381 723.705 28.1334 720.682 Q27.4968 717.658 27.4968 714.793 Q27.4968 707.059 31.5072 703.24 Q35.5176 699.42 43.6657 699.42 Z" fill="#000000" fill-rule="evenodd" fill-opacity="1" /><path clip-path="url(#clip450)" d="M46.212 661.767 Q39.7508 661.767 36.0905 664.441 Q32.3984 667.082 32.3984 671.729 Q32.3984 676.376 36.0905 679.05 Q39.7508 681.692 46.212 681.692 Q52.6732 681.692 56.3653 679.05 Q60.0256 676.376 60.0256 671.729 Q60.0256 667.082 56.3653 664.441 Q52.6732 661.767 46.212 661.767 M33.7671 681.692 Q30.5842 679.846 29.0564 677.045 Q27.4968 674.212 27.4968 670.297 Q27.4968 663.804 32.6531 659.762 Q37.8093 655.688 46.212 655.688 Q54.6147 655.688 59.771 659.762 Q64.9272 663.804 64.9272 670.297 Q64.9272 674.212 63.3994 677.045 Q61.8398 679.846 58.657 681.692 L64.0042 681.692 L64.0042 687.58 L14.479 687.58 L14.479 681.692 L33.7671 681.692 Z" fill="#000000" fill-rule="evenodd" fill-opacity="1" /><path clip-path="url(#clip450)" d="M44.7161 615.488 L47.5806 615.488 L47.5806 642.415 Q53.6281 642.033 56.8109 638.787 Q59.9619 635.508 59.9619 629.684 Q59.9619 626.31 59.1344 623.159 Q58.3069 619.976 56.6518 616.857 L62.1899 616.857 Q63.5267 620.008 64.227 623.318 Q64.9272 626.628 64.9272 630.034 Q64.9272 638.564 59.9619 643.561 Q54.9967 648.526 46.5303 648.526 Q37.7774 648.526 32.6531 643.816 Q27.4968 639.073 27.4968 631.052 Q27.4968 623.859 32.1438 619.69 Q36.7589 615.488 44.7161 615.488 M42.9973 621.345 Q38.1912 621.408 35.3266 624.05 Q32.4621 626.66 32.4621 630.989 Q32.4621 635.89 35.2312 638.85 Q38.0002 641.779 43.0292 642.224 L42.9973 621.345 Z" fill="#000000" fill-rule="evenodd" fill-opacity="1" /><path clip-path="url(#clip450)" d="M14.479 605.876 L14.479 600.02 L64.0042 600.02 L64.0042 605.876 L14.479 605.876 Z" fill="#000000" fill-rule="evenodd" fill-opacity="1" /><path clip-path="url(#clip450)" d="M1112.2 16.7545 L1112.2 25.383 Q1108.07 21.5346 1103.37 19.6307 Q1098.71 17.7268 1093.45 17.7268 Q1083.08 17.7268 1077.57 24.0867 Q1072.06 30.4061 1072.06 42.3968 Q1072.06 54.3469 1077.57 60.7069 Q1083.08 67.0263 1093.45 67.0263 Q1098.71 67.0263 1103.37 65.1223 Q1108.07 63.2184 1112.2 59.3701 L1112.2 67.9175 Q1107.91 70.8341 1103.09 72.2924 Q1098.31 73.7508 1092.96 73.7508 Q1079.23 73.7508 1071.33 65.3654 Q1063.43 56.9395 1063.43 42.3968 Q1063.43 27.8135 1071.33 19.4281 Q1079.23 11.0023 1092.96 11.0023 Q1098.39 11.0023 1103.17 12.4606 Q1107.99 13.8784 1112.2 16.7545 Z" fill="#000000" fill-rule="evenodd" fill-opacity="1" /><path clip-path="url(#clip450)" d="M1142.1 32.4315 Q1136.1 32.4315 1132.62 37.1306 Q1129.14 41.7891 1129.14 49.9314 Q1129.14 58.0738 1132.58 62.7728 Q1136.06 67.4314 1142.1 67.4314 Q1148.05 67.4314 1151.54 62.7323 Q1155.02 58.0333 1155.02 49.9314 Q1155.02 41.8701 1151.54 37.1711 Q1148.05 32.4315 1142.1 32.4315 M1142.1 26.1121 Q1151.82 26.1121 1157.37 32.4315 Q1162.92 38.7509 1162.92 49.9314 Q1162.92 61.0714 1157.37 67.4314 Q1151.82 73.7508 1142.1 73.7508 Q1132.34 73.7508 1126.79 67.4314 Q1121.28 61.0714 1121.28 49.9314 Q1121.28 38.7509 1126.79 32.4315 Q1132.34 26.1121 1142.1 26.1121 Z" fill="#000000" fill-rule="evenodd" fill-opacity="1" /><path clip-path="url(#clip450)" d="M1169.93 27.2059 L1177.83 27.2059 L1192.01 65.2844 L1206.18 27.2059 L1214.08 27.2059 L1197.07 72.576 L1186.94 72.576 L1169.93 27.2059 Z" fill="#000000" fill-rule="evenodd" fill-opacity="1" /><path clip-path="url(#clip450)" d="M1224.37 27.2059 L1231.83 27.2059 L1231.83 72.576 L1224.37 72.576 L1224.37 27.2059 M1224.37 9.54393 L1231.83 9.54393 L1231.83 18.9825 L1224.37 18.9825 L1224.37 9.54393 Z" fill="#000000" fill-rule="evenodd" fill-opacity="1" /><path clip-path="url(#clip450)" d="M1277.28 34.0924 L1277.28 9.54393 L1284.73 9.54393 L1284.73 72.576 L1277.28 72.576 L1277.28 65.7705 Q1274.93 69.8214 1271.32 71.8063 Q1267.76 73.7508 1262.73 73.7508 Q1254.51 73.7508 1249.33 67.1883 Q1244.18 60.6258 1244.18 49.9314 Q1244.18 39.2371 1249.33 32.6746 Q1254.51 26.1121 1262.73 26.1121 Q1267.76 26.1121 1271.32 28.0971 Q1274.93 30.0415 1277.28 34.0924 M1251.88 49.9314 Q1251.88 58.1548 1255.24 62.8538 Q1258.64 67.5124 1264.56 67.5124 Q1270.47 67.5124 1273.87 62.8538 Q1277.28 58.1548 1277.28 49.9314 Q1277.28 41.7081 1273.87 37.0496 Q1270.47 32.3505 1264.56 32.3505 Q1258.64 32.3505 1255.24 37.0496 Q1251.88 41.7081 1251.88 49.9314 Z" fill="#000000" fill-rule="evenodd" fill-opacity="1" /><path clip-path="url(#clip450)" d="M1334.96 18.8205 L1334.96 65.8515 L1344.85 65.8515 Q1357.36 65.8515 1363.16 60.1802 Q1368.99 54.509 1368.99 42.2752 Q1368.99 30.1225 1363.16 24.4918 Q1357.36 18.8205 1344.85 18.8205 L1334.96 18.8205 M1326.78 12.096 L1343.59 12.096 Q1361.17 12.096 1369.4 19.4281 Q1377.62 26.7198 1377.62 42.2752 Q1377.62 57.9117 1369.35 65.2439 Q1361.09 72.576 1343.59 72.576 L1326.78 72.576 L1326.78 12.096 Z" fill="#000000" fill-rule="evenodd" fill-opacity="1" /><path clip-path="url(#clip450)" d="M1410.96 49.7694 Q1401.92 49.7694 1398.44 51.8354 Q1394.96 53.9013 1394.96 58.8839 Q1394.96 62.8538 1397.55 65.2034 Q1400.18 67.5124 1404.68 67.5124 Q1410.88 67.5124 1414.6 63.1374 Q1418.37 58.7219 1418.37 51.4303 L1418.37 49.7694 L1410.96 49.7694 M1425.82 46.6907 L1425.82 72.576 L1418.37 72.576 L1418.37 65.6895 Q1415.82 69.8214 1412.01 71.8063 Q1408.2 73.7508 1402.69 73.7508 Q1395.73 73.7508 1391.59 69.8619 Q1387.5 65.9325 1387.5 59.3701 Q1387.5 51.7138 1392.61 47.825 Q1397.75 43.9361 1407.92 43.9361 L1418.37 43.9361 L1418.37 43.2069 Q1418.37 38.0623 1414.97 35.2672 Q1411.61 32.4315 1405.49 32.4315 Q1401.6 32.4315 1397.91 33.3632 Q1394.23 34.295 1390.82 36.1584 L1390.82 29.2718 Q1394.92 27.692 1398.76 26.9223 Q1402.61 26.1121 1406.26 26.1121 Q1416.1 26.1121 1420.96 31.2163 Q1425.82 36.3204 1425.82 46.6907 Z" fill="#000000" fill-rule="evenodd" fill-opacity="1" /><path clip-path="url(#clip450)" d="M1448.55 14.324 L1448.55 27.2059 L1463.9 27.2059 L1463.9 32.9987 L1448.55 32.9987 L1448.55 57.6282 Q1448.55 63.1779 1450.05 64.7578 Q1451.59 66.3376 1456.25 66.3376 L1463.9 66.3376 L1463.9 72.576 L1456.25 72.576 Q1447.62 72.576 1444.34 69.3758 Q1441.06 66.1351 1441.06 57.6282 L1441.06 32.9987 L1435.59 32.9987 L1435.59 27.2059 L1441.06 27.2059 L1441.06 14.324 L1448.55 14.324 Z" fill="#000000" fill-rule="evenodd" fill-opacity="1" /><path clip-path="url(#clip450)" d="M1494.33 49.7694 Q1485.29 49.7694 1481.81 51.8354 Q1478.32 53.9013 1478.32 58.8839 Q1478.32 62.8538 1480.92 65.2034 Q1483.55 67.5124 1488.05 67.5124 Q1494.24 67.5124 1497.97 63.1374 Q1501.74 58.7219 1501.74 51.4303 L1501.74 49.7694 L1494.33 49.7694 M1509.19 46.6907 L1509.19 72.576 L1501.74 72.576 L1501.74 65.6895 Q1499.19 69.8214 1495.38 71.8063 Q1491.57 73.7508 1486.06 73.7508 Q1479.09 73.7508 1474.96 69.8619 Q1470.87 65.9325 1470.87 59.3701 Q1470.87 51.7138 1475.97 47.825 Q1481.12 43.9361 1491.29 43.9361 L1501.74 43.9361 L1501.74 43.2069 Q1501.74 38.0623 1498.34 35.2672 Q1494.97 32.4315 1488.86 32.4315 Q1484.97 32.4315 1481.28 33.3632 Q1477.59 34.295 1474.19 36.1584 L1474.19 29.2718 Q1478.28 27.692 1482.13 26.9223 Q1485.98 26.1121 1489.63 26.1121 Q1499.47 26.1121 1504.33 31.2163 Q1509.19 36.3204 1509.19 46.6907 Z" fill="#000000" fill-rule="evenodd" fill-opacity="1" /></svg>
